<svg width="27" height="17" viewBox="0 0 27 17" fill="none" xmlns="http://www.w3.org/2000/svg">
<path id="Vector" d="M13.4988 0.00263811C11.5551 0.00263811 9.97268 1.68839 9.97268 3.75403C9.97268 5.07045 10.6156 6.23122 11.585 6.9013C10.0574 7.51598 8.86128 8.83768 8.35542 10.4997C7.86202 9.63439 7.1269 8.94848 6.24725 8.55276C6.99234 7.97238 7.48076 7.03321 7.48076 5.97796C7.48076 4.22889 6.14509 2.79112 4.50789 2.79112C2.8707 2.79112 1.54001 4.22889 1.54001 5.97796C1.54001 7.03321 2.02593 7.97238 2.77102 8.55276C1.1413 9.28352 0 11.0088 0 13.0164V16.5093C0 16.781 0.20683 17 0.463498 17H26.5365C26.7932 17 27 16.781 27 16.5093V13.0164C27 11.0062 25.8587 9.28088 24.229 8.55012C24.9741 7.96974 25.46 7.03057 25.46 5.97533C25.46 4.22626 24.1293 2.78849 22.4921 2.78849C20.8549 2.78849 19.5192 4.22626 19.5192 5.97533C19.5192 7.03057 20.0077 7.96974 20.7527 8.55012C19.8731 8.94584 19.138 9.63439 18.6446 10.4971C18.1387 8.83768 16.9401 7.51598 15.4126 6.9013C16.3844 6.23122 17.0273 5.07045 17.0273 3.7514C17.0273 1.68575 15.4425 0 13.4988 0V0.00263811ZM13.4988 0.989292C14.9391 0.989292 16.0953 2.21865 16.0953 3.75403C16.0953 5.28942 14.9366 6.52141 13.4988 6.52141C12.0609 6.52141 10.8997 5.28942 10.8997 3.75403C10.8997 2.21865 12.0584 0.989292 13.4988 0.989292ZM4.50789 3.77514C5.63673 3.77514 6.54878 4.75124 6.54878 5.97796C6.54878 7.20469 5.63424 8.17551 4.50789 8.17551C3.38154 8.17551 2.4695 7.20205 2.4695 5.97796C2.4695 4.75388 3.37905 3.77514 4.50789 3.77514ZM22.4921 3.77514C23.621 3.77514 24.5305 4.75124 24.5305 5.97796C24.5305 7.20469 23.621 8.17551 22.4921 8.17551C21.3633 8.17551 20.4512 7.20205 20.4512 5.97796C20.4512 4.75388 21.3658 3.77514 22.4921 3.77514ZM13.4988 7.51335C15.9882 7.51335 17.9792 9.62647 17.9792 12.2804V16.0186H9.02077V12.2804C9.02077 9.62911 11.0093 7.51335 13.4988 7.51335ZM4.50789 9.1648C6.49395 9.1648 8.08879 10.869 8.08879 13.0164V16.016H0.93198V13.0164C0.93198 10.869 2.52183 9.1648 4.50789 9.1648ZM22.4921 9.1648C24.4782 9.1648 26.068 10.869 26.068 13.0164V16.016H18.9087V13.0164C18.9087 10.869 20.5036 9.1648 22.4896 9.1648H22.4921Z" fill="#26252A"/>
</svg>
